HIERARCHY
ROOT mixamorig:Hips
{
	OFFSET -0.000008 104.274872 1.554316
	CHANNELS 6 Xposition Yposition Zposition Xrotation Yrotation Zrotation
	JOINT mixamorig:Spine
	{
		OFFSET -0.000005 10.181595 0.131519
		CHANNELS 6 Xposition Yposition Zposition Xrotation Yrotation Zrotation
		JOINT mixamorig:Spine1
		{
			OFFSET -0.000000 9.893959 -1.470707
			CHANNELS 6 Xposition Yposition Zposition Xrotation Yrotation Zrotation
			JOINT mixamorig:Spine2
			{
				OFFSET -0.000000 9.220757 -1.370641
				CHANNELS 6 Xposition Yposition Zposition Xrotation Yrotation Zrotation
				JOINT mixamorig:Neck
				{
					OFFSET 0.000001 16.740417 -2.049036
					CHANNELS 6 Xposition Yposition Zposition Xrotation Yrotation Zrotation
					JOINT mixamorig:Head
					{
						OFFSET 0.000000 9.617874 1.685006
						CHANNELS 6 Xposition Yposition Zposition Xrotation Yrotation Zrotation
						JOINT mixamorig:HeadTop_End
						{
							OFFSET 0.000002 22.037354 7.501101
							CHANNELS 6 Xposition Yposition Zposition Xrotation Yrotation Zrotation
							End Site
							{
								OFFSET 0.000168 2310.654297 -282.823242
							}
						}
					}
				}
				JOINT mixamorig:RightShoulder
				{
					OFFSET -4.569970 11.014908 -2.160885
					CHANNELS 6 Xposition Yposition Zposition Xrotation Yrotation Zrotation
					JOINT mixamorig:RightArm
					{
						OFFSET -10.592851 -0.524811 -2.232101
						CHANNELS 6 Xposition Yposition Zposition Xrotation Yrotation Zrotation
						JOINT mixamorig:RightForeArm
						{
							OFFSET -27.841511 0.000031 -0.000004
							CHANNELS 6 Xposition Yposition Zposition Xrotation Yrotation Zrotation
							JOINT mixamorig:RightHand
							{
								OFFSET -28.328831 -0.000015 0.000015
								CHANNELS 6 Xposition Yposition Zposition Xrotation Yrotation Zrotation
								JOINT mixamorig:RightHandThumb1
								{
									OFFSET -2.464806 -1.573990 2.681852
									CHANNELS 6 Xposition Yposition Zposition Xrotation Yrotation Zrotation
									JOINT mixamorig:RightHandThumb2
									{
										OFFSET -3.215179 -1.872803 1.924282
										CHANNELS 6 Xposition Yposition Zposition Xrotation Yrotation Zrotation
										JOINT mixamorig:RightHandThumb3
										{
											OFFSET -2.654831 -1.527969 1.512609
											CHANNELS 6 Xposition Yposition Zposition Xrotation Yrotation Zrotation
											JOINT mixamorig:RightHandThumb4
											{
												OFFSET -2.018814 -1.152008 1.108052
												CHANNELS 6 Xposition Yposition Zposition Xrotation Yrotation Zrotation
												End Site
												{
													OFFSET -188.809540 -114.533607 132.431396
												}
											}
										}
									}
								}
								JOINT mixamorig:RightHandIndex1
								{
									OFFSET -9.108284 -0.517868 2.259835
									CHANNELS 6 Xposition Yposition Zposition Xrotation Yrotation Zrotation
									JOINT mixamorig:RightHandIndex2
									{
										OFFSET -3.699989 0.000000 0.001215
										CHANNELS 6 Xposition Yposition Zposition Xrotation Yrotation Zrotation
										JOINT mixamorig:RightHandIndex3
										{
											OFFSET -2.850006 0.000031 -0.000522
											CHANNELS 6 Xposition Yposition Zposition Xrotation Yrotation Zrotation
											JOINT mixamorig:RightHandIndex4
											{
												OFFSET -2.772186 -0.000015 -0.000020
												CHANNELS 6 Xposition Yposition Zposition Xrotation Yrotation Zrotation
												End Site
												{
													OFFSET -277.218445 0.000000 -0.050231
												}
											}
										}
									}
								}
								JOINT mixamorig:RightHandMiddle1
								{
									OFFSET -9.532516 -0.000031 -0.000023
									CHANNELS 6 Xposition Yposition Zposition Xrotation Yrotation Zrotation
									JOINT mixamorig:RightHandMiddle2
									{
										OFFSET -3.700005 -0.000015 0.003713
										CHANNELS 6 Xposition Yposition Zposition Xrotation Yrotation Zrotation
										JOINT mixamorig:RightHandMiddle3
										{
											OFFSET -2.949974 0.000015 -0.002054
											CHANNELS 6 Xposition Yposition Zposition Xrotation Yrotation Zrotation
											JOINT mixamorig:RightHandMiddle4
											{
												OFFSET -2.946640 0.000000 -0.000156
												CHANNELS 6 Xposition Yposition Zposition Xrotation Yrotation Zrotation
												End Site
												{
													OFFSET -294.664337 0.000000 -0.113670
												}
											}
										}
									}
								}
								JOINT mixamorig:RightHandRing1
								{
									OFFSET -9.103600 -0.043076 -1.865134
									CHANNELS 6 Xposition Yposition Zposition Xrotation Yrotation Zrotation
									JOINT mixamorig:RightHandRing2
									{
										OFFSET -3.379288 0.000000 -0.001055
										CHANNELS 6 Xposition Yposition Zposition Xrotation Yrotation Zrotation
										JOINT mixamorig:RightHandRing3
										{
											OFFSET -2.889687 -0.000015 0.000379
											CHANNELS 6 Xposition Yposition Zposition Xrotation Yrotation Zrotation
											JOINT mixamorig:RightHandRing4
											{
												OFFSET -2.638809 -0.000015 0.000941
												CHANNELS 6 Xposition Yposition Zposition Xrotation Yrotation Zrotation
												End Site
												{
													OFFSET -263.880371 0.000000 0.516020
												}
											}
										}
									}
								}
								JOINT mixamorig:RightHandPinky1
								{
									OFFSET -8.076683 -0.486710 -3.806280
									CHANNELS 6 Xposition Yposition Zposition Xrotation Yrotation Zrotation
									JOINT mixamorig:RightHandPinky2
									{
										OFFSET -3.600014 -0.000015 -0.003747
										CHANNELS 6 Xposition Yposition Zposition Xrotation Yrotation Zrotation
										JOINT mixamorig:RightHandPinky3
										{
											OFFSET -2.099983 0.000000 -0.005739
											CHANNELS 6 Xposition Yposition Zposition Xrotation Yrotation Zrotation
											JOINT mixamorig:RightHandPinky4
											{
												OFFSET -2.115768 -0.000031 -0.003680
												CHANNELS 6 Xposition Yposition Zposition Xrotation Yrotation Zrotation
												End Site
												{
													OFFSET -211.577087 0.000000 -0.350686
												}
											}
										}
									}
								}
							}
						}
					}
				}
				JOINT mixamorig:LeftShoulder
				{
					OFFSET 4.570447 11.014725 -2.160855
					CHANNELS 6 Xposition Yposition Zposition Xrotation Yrotation Zrotation
					JOINT mixamorig:LeftArm
					{
						OFFSET 10.592371 -0.524597 -2.232119
						CHANNELS 6 Xposition Yposition Zposition Xrotation Yrotation Zrotation
						JOINT mixamorig:LeftForeArm
						{
							OFFSET 27.841532 -0.000031 0.000026
							CHANNELS 6 Xposition Yposition Zposition Xrotation Yrotation Zrotation
							JOINT mixamorig:LeftHand
							{
								OFFSET 28.328846 -0.000061 0.000022
								CHANNELS 6 Xposition Yposition Zposition Xrotation Yrotation Zrotation
								JOINT mixamorig:LeftHandThumb1
								{
									OFFSET 2.466141 -1.576172 2.681732
									CHANNELS 6 Xposition Yposition Zposition Xrotation Yrotation Zrotation
									JOINT mixamorig:LeftHandThumb2
									{
										OFFSET 3.217812 -1.872070 1.916482
										CHANNELS 6 Xposition Yposition Zposition Xrotation Yrotation Zrotation
										JOINT mixamorig:LeftHandThumb3
										{
											OFFSET 2.656029 -1.528778 1.514513
											CHANNELS 6 Xposition Yposition Zposition Xrotation Yrotation Zrotation
											JOINT mixamorig:LeftHandThumb4
											{
												OFFSET 2.020889 -1.154053 1.115139
												CHANNELS 6 Xposition Yposition Zposition Xrotation Yrotation Zrotation
												End Site
												{
													OFFSET 190.885437 -115.081749 130.048782
												}
											}
										}
									}
								}
								JOINT mixamorig:LeftHandIndex1
								{
									OFFSET 9.109314 -0.518021 2.259871
									CHANNELS 6 Xposition Yposition Zposition Xrotation Yrotation Zrotation
									JOINT mixamorig:LeftHandIndex2
									{
										OFFSET 3.699989 0.000000 -0.000322
										CHANNELS 6 Xposition Yposition Zposition Xrotation Yrotation Zrotation
										JOINT mixamorig:LeftHandIndex3
										{
											OFFSET 2.850006 0.000000 0.000352
											CHANNELS 6 Xposition Yposition Zposition Xrotation Yrotation Zrotation
											JOINT mixamorig:LeftHandIndex4
											{
												OFFSET 2.774864 -0.000031 -0.000027
												CHANNELS 6 Xposition Yposition Zposition Xrotation Yrotation Zrotation
												End Site
												{
													OFFSET 277.486267 0.000000 -0.009857
												}
											}
										}
									}
								}
								JOINT mixamorig:LeftHandMiddle1
								{
									OFFSET 9.533394 0.000061 0.000044
									CHANNELS 6 Xposition Yposition Zposition Xrotation Yrotation Zrotation
									JOINT mixamorig:LeftHandMiddle2
									{
										OFFSET 3.699989 -0.000015 -0.000231
										CHANNELS 6 Xposition Yposition Zposition Xrotation Yrotation Zrotation
										JOINT mixamorig:LeftHandMiddle3
										{
											OFFSET 2.949997 -0.000015 -0.000059
											CHANNELS 6 Xposition Yposition Zposition Xrotation Yrotation Zrotation
											JOINT mixamorig:LeftHandMiddle4
											{
												OFFSET 2.952896 0.000031 0.000063
												CHANNELS 6 Xposition Yposition Zposition Xrotation Yrotation Zrotation
												End Site
												{
													OFFSET 295.289337 0.000000 0.022810
												}
											}
										}
									}
								}
								JOINT mixamorig:LeftHandRing1
								{
									OFFSET 9.104523 -0.042999 -1.865074
									CHANNELS 6 Xposition Yposition Zposition Xrotation Yrotation Zrotation
									JOINT mixamorig:LeftHandRing2
									{
										OFFSET 3.150009 -0.000031 0.000043
										CHANNELS 6 Xposition Yposition Zposition Xrotation Yrotation Zrotation
										JOINT mixamorig:LeftHandRing3
										{
											OFFSET 2.949982 -0.000015 0.000040
											CHANNELS 6 Xposition Yposition Zposition Xrotation Yrotation Zrotation
											JOINT mixamorig:LeftHandRing4
											{
												OFFSET 2.644348 0.000000 0.000057
												CHANNELS 6 Xposition Yposition Zposition Xrotation Yrotation Zrotation
												End Site
												{
													OFFSET 264.434631 0.000000 0.012105
												}
											}
										}
									}
								}
								JOINT mixamorig:LeftHandPinky1
								{
									OFFSET 8.077789 -0.486847 -3.806259
									CHANNELS 6 Xposition Yposition Zposition Xrotation Yrotation Zrotation
									JOINT mixamorig:LeftHandPinky2
									{
										OFFSET 3.599953 0.000031 0.014727
										CHANNELS 6 Xposition Yposition Zposition Xrotation Yrotation Zrotation
										JOINT mixamorig:LeftHandPinky3
										{
											OFFSET 2.100021 0.000015 0.007705
											CHANNELS 6 Xposition Yposition Zposition Xrotation Yrotation Zrotation
											JOINT mixamorig:LeftHandPinky4
											{
												OFFSET 2.125504 0.000031 0.007517
												CHANNELS 6 Xposition Yposition Zposition Xrotation Yrotation Zrotation
												End Site
												{
													OFFSET 212.550781 0.000000 0.625752
												}
											}
										}
									}
								}
							}
						}
					}
				}
			}
		}
	}
	JOINT mixamorig:RightUpLeg
	{
		OFFSET -8.207787 -6.751648 -1.599560
		CHANNELS 6 Xposition Yposition Zposition Xrotation Yrotation Zrotation
		JOINT mixamorig:RightLeg
		{
			OFFSET -0.000002 -44.370117 0.345942
			CHANNELS 6 Xposition Yposition Zposition Xrotation Yrotation Zrotation
			JOINT mixamorig:RightFoot
			{
				OFFSET 0.000003 -44.423679 -3.043532
				CHANNELS 6 Xposition Yposition Zposition Xrotation Yrotation Zrotation
				JOINT mixamorig:RightToeBase
				{
					OFFSET -0.000002 -8.728671 10.710558
					CHANNELS 6 Xposition Yposition Zposition Xrotation Yrotation Zrotation
					JOINT mixamorig:RightToe_End
					{
						OFFSET -0.000001 -0.000679 9.278119
						CHANNELS 6 Xposition Yposition Zposition Xrotation Yrotation Zrotation
						End Site
						{
							OFFSET 0.000000 -0.067690 927.812134
						}
					}
				}
			}
		}
	}
	JOINT mixamorig:LeftUpLeg
	{
		OFFSET 8.207793 -6.751686 -1.599556
		CHANNELS 6 Xposition Yposition Zposition Xrotation Yrotation Zrotation
		JOINT mixamorig:LeftLeg
		{
			OFFSET -0.000004 -44.370014 0.346954
			CHANNELS 6 Xposition Yposition Zposition Xrotation Yrotation Zrotation
			JOINT mixamorig:LeftFoot
			{
				OFFSET -0.000001 -44.423672 -3.044401
				CHANNELS 6 Xposition Yposition Zposition Xrotation Yrotation Zrotation
				JOINT mixamorig:LeftToeBase
				{
					OFFSET -0.000002 -8.728669 10.710558
					CHANNELS 6 Xposition Yposition Zposition Xrotation Yrotation Zrotation
					JOINT mixamorig:LeftToe_End
					{
						OFFSET -0.000003 -0.000679 9.278133
						CHANNELS 6 Xposition Yposition Zposition Xrotation Yrotation Zrotation
						End Site
						{
							OFFSET 0.000000 -0.068021 927.813477
						}
					}
				}
			}
		}
	}
}
MOTION
Frames: 3
Frame Time: 0.033333
0.000006 104.270477 1.554256 0.000010 0.000003 -0.000113 -0.000005 10.181587 0.131522 0.000001 -0.000003 0.000084 -0.000000 9.893967 -1.470711 0.000001 0.000000 -0.000000 -0.000000 9.220802 -1.370642 0.000000 -0.000000 -0.000000 0.000001 16.740433 -2.049030 0.000000 -0.000000 -0.000000 0.000000 9.617859 1.685014 0.000000 0.000000 0.000000 0.000002 22.037384 7.501101 0.000000 -0.000000 0.000000 -4.569968 11.014880 -2.160881 0.000008 0.000001 -0.000038 -10.592876 -0.524764 -2.231915 72.883910 28.645487 -21.352947 -27.841518 0.000013 0.000542 -56.328311 107.076008 71.849813 -28.328829 0.000006 0.000025 -0.000324 -0.000043 0.000007 -2.464444 -1.573919 2.682388 -27.682596 -152.994612 30.997041 -3.215274 -1.872591 1.924662 156.000073 32.248752 6.487350 -2.654953 -1.527881 1.513071 143.028478 27.493441 -40.554863 -2.018830 -1.151980 1.108052 -0.000004 -0.000000 0.000000 -9.108388 -0.517556 2.260146 106.615988 16.029665 -21.462942 -3.700066 0.000328 0.001539 103.277057 10.361423 -13.041110 -2.850071 0.000392 -0.000247 102.533523 6.638643 -8.270320 -2.772173 -0.000000 -0.000020 0.000000 -0.000000 0.000001 -9.532600 0.000260 0.000275 101.467952 17.002298 -20.897672 -3.700058 0.000356 0.003995 99.015504 9.520918 -11.033663 -2.950037 0.000349 -0.001793 97.866263 8.111211 -9.296194 -2.946618 0.000001 -0.000161 -0.000000 0.000000 0.000000 -9.103723 -0.042769 -1.864825 97.351670 20.129396 -22.773253 -3.379330 0.000315 -0.000781 98.721348 10.342197 -12.058404 -2.889733 0.000347 0.000672 101.367404 5.593961 -6.882453 -2.638789 -0.000027 0.000942 0.000002 -0.000001 -0.000002 -8.076765 -0.486399 -3.806046 76.941002 20.062656 -15.876797 -3.600058 0.000266 -0.003537 82.321722 11.302599 -9.565819 -2.100012 0.000309 -0.005513 85.744057 6.125141 -5.481824 -2.115765 -0.000028 -0.003673 0.000001 -0.000000 -0.000005 4.570446 11.014691 -2.160851 -0.000018 0.000010 -0.000021 10.592413 -0.524467 -2.232362 73.063066 -17.119555 12.725138 27.841825 0.000060 -0.000185 99.243981 -71.011079 79.989425 28.328831 -0.000028 0.000028 0.000021 -0.000089 0.000000 2.466063 -1.576169 2.681911 -27.696994 157.990130 -34.019127 3.217833 -1.871761 1.916386 161.077663 -27.878746 17.432857 2.656110 -1.528677 1.514473 135.490872 -28.992223 53.070382 2.020883 -1.154066 1.115147 0.000001 0.000002 0.000002 9.109368 -0.517881 2.259723 78.453738 -18.586700 15.207367 3.700044 0.000119 -0.000453 74.500780 -19.506371 14.907702 2.850034 0.000138 0.000221 71.427414 -15.294284 11.026223 2.774879 -0.000023 -0.000025 -0.000001 -0.000000 -0.000003 9.533450 0.000183 -0.000083 78.287314 -15.594688 12.712393 3.700047 0.000145 -0.000377 79.875818 -15.870237 13.310473 2.950079 0.000116 -0.000191 77.277812 -19.127147 15.344099 2.952869 -0.000029 0.000059 -0.000001 -0.000002 -0.000001 9.104573 -0.042876 -1.865220 75.964326 -14.585638 11.413783 3.150043 0.000172 -0.000092 80.007040 -12.787356 10.745924 2.950027 0.000145 -0.000081 79.966735 -14.869563 12.491991 2.644326 0.000048 0.000057 -0.000001 -0.000000 -0.000000 8.077836 -0.486762 -3.806381 64.001215 -15.560708 10.135641 3.600008 0.000136 0.014551 66.151878 -12.511144 8.503274 2.100046 0.000143 0.007555 69.599593 -12.678563 9.173776 2.125489 -0.000014 0.007510 -0.000001 0.000003 -0.000000 -8.207786 -6.751667 -1.599560 -0.077001 -0.000003 0.000080 -0.000002 -44.370110 0.345938 0.153719 -0.000000 -0.000000 0.000000 -44.423679 -3.043532 -0.076700 0.000000 -0.000002 -0.000006 -8.728667 10.710559 -0.000009 -0.000000 -0.000000 -0.000001 -0.000679 9.278123 0.000000 -0.000000 -0.000000 8.207792 -6.751710 -1.599556 -0.074518 -0.000003 0.000081 -0.000002 -44.370014 0.346960 0.148822 0.000002 0.000000 -0.000001 -44.423664 -3.044403 -0.074314 0.000000 -0.000002 -0.000004 -8.728671 10.710558 0.000007 -0.000000 -0.000000 0.000000 -0.000680 9.278137 -0.000000 0.000000 -0.000001 
0.000006 104.270477 1.554256 0.000010 0.000003 -0.000113 -0.000005 10.181587 0.131522 0.000001 -0.000003 0.000084 -0.000000 9.893967 -1.470711 0.000001 0.000000 -0.000000 -0.000000 9.220802 -1.370642 0.000000 -0.000000 -0.000000 0.000001 16.740433 -2.049030 0.000000 -0.000000 -0.000000 0.000000 9.617859 1.685014 0.000000 0.000000 0.000000 0.000002 22.037384 7.501101 0.000000 -0.000000 0.000000 -4.569968 11.014880 -2.160881 0.000008 0.000001 -0.000038 -10.592877 -0.524755 -2.231917 73.508559 27.103808 -20.410070 -27.841518 0.000012 0.000542 -52.327534 106.923784 67.088570 -28.328806 0.000020 0.000027 -0.000319 -0.000045 0.000007 -2.464399 -1.573861 2.682363 -37.857730 -154.810664 11.415961 -3.215288 -1.872607 1.924660 154.248785 31.060801 0.692128 -2.654945 -1.527858 1.513074 142.495190 27.856107 -36.398232 -2.018842 -1.152012 1.108068 -0.000005 -0.000001 0.000002 -9.108372 -0.517559 2.260141 106.502573 15.035077 -20.106190 -3.700051 0.000320 0.001522 102.552777 11.582060 -14.388697 -2.850080 0.000372 -0.000234 101.110193 8.954179 -10.871950 -2.772156 -0.000016 -0.000014 -0.000000 -0.000001 0.000000 -9.532578 0.000277 0.000261 99.272818 15.694738 -18.587247 -3.700069 0.000338 0.003995 98.735330 10.615345 -12.250073 -2.950055 0.000348 -0.001790 99.337336 10.166988 -11.954875 -2.946627 -0.000015 -0.000154 -0.000003 0.000002 0.000001 -9.103698 -0.042761 -1.864851 92.634666 18.772961 -19.592517 -3.379337 0.000299 -0.000780 97.378711 11.509065 -13.102800 -2.889761 0.000356 0.000673 101.873781 8.531908 -10.559596 -2.638807 0.000001 0.000939 0.000000 -0.000002 -0.000001 -8.076757 -0.486402 -3.806069 76.716978 21.153883 -16.686743 -3.600061 0.000252 -0.003546 80.245570 13.580948 -11.140752 -2.100043 0.000285 -0.005501 84.978529 8.018803 -7.139219 -2.115768 -0.000042 -0.003674 0.000001 -0.000001 -0.000003 4.570446 11.014691 -2.160851 -0.000018 0.000010 -0.000021 10.592383 -0.524487 -2.232337 72.593901 -6.082661 4.469684 27.841829 0.000061 -0.000195 102.710062 -71.948550 84.466661 28.328815 -0.000029 0.000019 0.000020 -0.000089 0.000000 2.466238 -1.576079 2.681830 2.370174 167.953792 -94.401820 3.217862 -1.871857 1.916409 165.516603 -22.856815 35.700347 2.656101 -1.528702 1.514492 135.605783 -28.906529 62.652724 2.020887 -1.154072 1.115146 0.000001 0.000002 0.000004 9.109361 -0.517890 2.259745 78.933307 -20.751033 17.134909 3.700035 0.000149 -0.000470 76.434577 -12.868710 10.162583 2.850056 0.000164 0.000214 75.240729 -10.100706 7.791515 2.774865 -0.000029 -0.000028 -0.000001 -0.000003 -0.000000 9.533448 0.000178 -0.000082 79.006499 -18.876777 15.600104 3.700030 0.000150 -0.000377 81.608255 -10.663132 9.209995 2.950039 0.000166 -0.000206 82.145476 -10.787596 9.410779 2.952857 -0.000045 0.000060 -0.000001 0.000001 0.000000 9.104576 -0.042882 -1.865234 77.001148 -19.051588 15.207556 3.150061 0.000169 -0.000090 81.839204 -11.749770 10.195460 2.950013 0.000171 -0.000084 83.163707 -9.814325 8.714064 2.644319 0.000031 0.000056 0.000000 -0.000000 -0.000001 8.077825 -0.486764 -3.806391 67.091849 -20.265115 13.932752 3.599982 0.000148 0.014582 67.967732 -16.359724 11.432827 2.100035 0.000139 0.007555 70.659762 -12.067140 8.916187 2.125501 -0.000014 0.007512 0.000000 0.000001 0.000004 -8.207786 -6.751667 -1.599560 -0.077001 -0.000003 0.000080 -0.000002 -44.370110 0.345938 0.153719 -0.000000 -0.000000 0.000000 -44.423679 -3.043532 -0.076700 0.000000 -0.000002 -0.000006 -8.728667 10.710559 -0.000009 -0.000000 -0.000000 -0.000001 -0.000679 9.278123 0.000000 -0.000000 -0.000000 8.207792 -6.751710 -1.599556 -0.074518 -0.000003 0.000081 -0.000002 -44.370014 0.346960 0.148822 0.000002 0.000000 -0.000001 -44.423664 -3.044403 -0.074314 0.000000 -0.000002 -0.000004 -8.728671 10.710558 0.000007 -0.000000 -0.000000 0.000000 -0.000680 9.278137 -0.000000 0.000000 -0.000001 
0.000006 104.270477 1.554256 0.000010 0.000003 -0.000113 -0.000005 10.181587 0.131522 0.000001 -0.000003 0.000084 -0.000000 9.893967 -1.470711 0.000001 0.000000 -0.000000 -0.000000 9.220802 -1.370642 0.000000 -0.000000 -0.000000 0.000001 16.740433 -2.049030 0.000000 -0.000000 -0.000000 0.000000 9.617859 1.685014 0.000000 0.000000 0.000000 0.000002 22.037384 7.501101 0.000000 -0.000000 0.000000 -4.569968 11.014880 -2.160881 0.000008 0.000001 -0.000038 -10.592867 -0.524776 -2.231874 73.279242 36.135406 -27.276009 -27.841507 0.000007 0.000547 -48.186264 103.762499 59.359528 -28.328823 0.000018 0.000028 -0.000320 -0.000042 0.000005 -2.464486 -1.573655 2.682248 -56.579802 -180.654364 -42.368237 -3.215278 -1.872637 1.924666 148.439531 28.843018 -13.353027 -2.654953 -1.527853 1.513049 139.898667 28.553208 -30.744966 -2.018829 -1.151995 1.108080 -0.000004 0.000001 -0.000000 -9.108371 -0.517545 2.260137 104.467416 13.160764 -16.996246 -3.700059 0.000340 0.001545 103.213290 10.537185 -13.247012 -2.850094 0.000372 -0.000244 102.041633 8.594227 -10.609293 -2.772171 -0.000001 -0.000022 -0.000000 0.000001 -0.000000 -9.532596 0.000286 0.000247 96.417286 12.771252 -14.427101 -3.700077 0.000333 0.003991 97.971346 11.433133 -13.023830 -2.950068 0.000350 -0.001792 97.972124 11.001030 -12.628443 -2.946625 0.000000 -0.000150 -0.000003 0.000001 0.000000 -9.103692 -0.042744 -1.864869 91.845697 16.424324 -16.908671 -3.379355 0.000311 -0.000789 95.201226 12.929496 -14.167678 -2.889762 0.000335 0.000660 100.200473 9.586024 -11.509709 -2.638820 -0.000015 0.000937 -0.000002 0.000000 -0.000002 -8.076738 -0.486393 -3.806047 78.637033 18.310405 -14.912460 -3.600047 0.000259 -0.003550 79.914668 11.854830 -9.630901 -2.100029 0.000313 -0.005517 84.547264 7.308985 -6.441749 -2.115773 -0.000055 -0.003676 0.000002 -0.000001 -0.000004 4.570446 11.014691 -2.160851 -0.000018 0.000010 -0.000021 10.592416 -0.524479 -2.232378 71.018634 -19.710186 14.132351 27.841825 0.000049 -0.000177 106.397183 -74.522889 90.956953 28.328838 -0.000028 0.000020 0.000020 -0.000089 0.000000 2.466244 -1.576083 2.681835 2.075249 168.170787 -94.305501 3.217887 -1.871877 1.916426 161.135173 -20.130266 50.265216 2.656104 -1.528669 1.514495 137.322155 -28.266576 59.369978 2.020891 -1.154082 1.115142 0.000008 0.000001 -0.000001 9.109364 -0.517878 2.259747 80.994002 -19.181215 16.410962 3.700044 0.000134 -0.000467 77.441750 -11.259166 9.050798 2.850043 0.000176 0.000186 75.385310 -8.512089 6.581060 2.774887 -0.000015 -0.000022 0.000000 -0.000000 0.000000 9.533461 0.000194 -0.000078 80.576951 -17.459079 14.824857 3.700039 0.000165 -0.000392 83.227276 -9.347143 8.304343 2.950034 0.000166 -0.000220 83.173304 -9.448776 8.391647 2.952881 -0.000016 0.000065 -0.000000 0.000000 -0.000000 9.104594 -0.042869 -1.865225 79.583541 -17.058590 14.242325 3.150054 0.000192 -0.000106 83.921961 -11.743437 10.568069 2.950016 0.000168 -0.000089 83.793321 -9.775102 8.775362 2.644318 0.000016 0.000056 0.000000 0.000000 0.000000 8.077847 -0.486748 -3.806392 71.103465 -18.576538 13.770740 3.600004 0.000133 0.014580 70.940203 -16.461545 12.151543 2.100041 0.000140 0.007542 71.492027 -12.233631 9.174521 2.125496 -0.000015 0.007510 0.000000 0.000000 0.000000 -8.207786 -6.751667 -1.599560 -0.077001 -0.000003 0.000080 -0.000002 -44.370110 0.345938 0.153719 -0.000000 -0.000000 0.000000 -44.423679 -3.043532 -0.076700 0.000000 -0.000002 -0.000006 -8.728667 10.710559 -0.000009 -0.000000 -0.000000 -0.000001 -0.000679 9.278123 0.000000 -0.000000 -0.000000 8.207792 -6.751710 -1.599556 -0.074518 -0.000003 0.000081 -0.000002 -44.370014 0.346960 0.148822 0.000002 0.000000 -0.000001 -44.423664 -3.044403 -0.074314 0.000000 -0.000002 -0.000004 -8.728671 10.710558 0.000007 -0.000000 -0.000000 0.000000 -0.000680 9.278137 -0.000000 0.000000 -0.000001 
